<?xml version="1.0" encoding="UTF-8"?>
<svg width="22px" height="22px" viewBox="0 0 22 22" version="1.1" xmlns="http://www.w3.org/2000/svg" xmlns:xlink="http://www.w3.org/1999/xlink">
    <title>形状</title>
    <g id="页面-1" stroke="none" stroke-width="1" fill="none" fill-rule="evenodd">
        <g id="基地企业奖励-申请明细表" transform="translate(-1172.000000, -508.000000)" fill="#0F6BD9" fill-rule="nonzero">
            <path d="M1182.99966,530 C1176.92464,530 1172,525.075023 1172,518.999664 C1172,512.924305 1176.92464,508 1182.99966,508 C1189.07469,508 1194,512.924641 1194,518.999664 C1194,525.074687 1189.07469,530 1182.99966,530 Z M1183.01948,509.686443 C1177.86577,509.686443 1173.68779,513.860733 1173.68779,519.00974 C1173.68779,524.158748 1177.86611,528.333374 1183.01982,528.333374 C1188.17353,528.333374 1192.35118,524.159084 1192.35118,519.00974 C1192.35118,513.860397 1188.17319,509.686443 1183.01982,509.686443 L1183.01948,509.686443 Z M1186.76586,519.861527 L1179.27344,519.861527 C1178.96912,519.861527 1178.68792,519.699177 1178.53577,519.435634 C1178.38361,519.17209 1178.38361,518.847391 1178.53577,518.583847 C1178.68792,518.320304 1178.96912,518.157954 1179.27344,518.157954 L1186.76586,518.157954 C1187.23629,518.157954 1187.61765,518.539312 1187.61765,519.00974 C1187.61765,519.480169 1187.23629,519.861527 1186.76586,519.861527 L1186.76586,519.861527 Z" id="形状"></path>
        </g>
    </g>
</svg>