<?xml version="1.0" encoding="UTF-8"?>
<svg width="72px" height="72px" viewBox="0 0 72 72" version="1.1" xmlns="http://www.w3.org/2000/svg" xmlns:xlink="http://www.w3.org/1999/xlink">
    <title>基地企业奖励</title>
    <g id="页面-1" stroke="none" stroke-width="1" fill="none" fill-rule="evenodd">
        <g id="服贸补贴申请首页" transform="translate(-302.000000, -276.000000)" fill="#FFFFFF" fill-rule="nonzero">
            <g id="ic-基地企业奖励" transform="translate(302.000000, 276.000000)">
                <path d="M66.3243207,58.0313678 L66.3243207,69.5929321 C66.3254631,70.4648422 65.849382,71.2690025 65.0802234,71.6943676 C64.3110648,72.1197327 63.3694401,72.0996012 62.6195654,71.64176 C62.612187,71.6376681 62.6045654,71.6346193 62.597187,71.6303669 L56.9884865,68.4085337 L51.3144346,71.6732915 C50.939805,71.8889165 50.5131783,72 50.0798135,71.9952663 C50.0489216,71.9964698 50.0185162,72 49.9873,72 C48.655156,71.9887919 47.5843466,70.911224 47.5954091,69.5930123 L47.5954091,57.9672617 C44.0542826,55.1525873 41.9960011,50.8992859 42,46.4047347 C42,38.2070962 48.7157059,31.5616438 57,31.5616438 C65.284294,31.5616438 72,38.2070962 72,46.4047347 C72.0040464,50.9351355 69.9131382,55.2183668 66.3243207,58.0313678 Z M53,65.0958904 L55.8979005,63.4209998 C56.6717027,62.7194106 57.8138874,62.5979563 58.7194474,63.1209705 L62,65.0141514 L62,60.2160797 C59.0659525,61.1188036 55.9233588,61.1007525 53,60.1643836 L53,65.0958904 L53,65.0958904 Z M57,36.4931507 C51.4771525,36.4931507 47,40.9089723 47,46.3561644 C47,51.8033564 51.4771525,56.2191781 57,56.2191781 C62.5228475,56.2191781 67,51.8033564 67,46.3561644 C67,40.9089723 62.5228475,36.4931507 57,36.4931507 Z M57.0001023,53.260274 C54.168908,53.260274 51.6164913,51.4580157 50.5330401,48.6938894 C49.4495889,45.9297631 50.0484705,42.748116 52.0504272,40.6325454 C54.0523839,38.5169747 57.0631647,37.8841057 59.6788472,39.0290443 C62.2945297,40.1739829 64,42.871253 64,45.8631218 C64,49.9484561 60.8660391,53.260274 57.0001023,53.260274 Z M57.5,43.3972603 C56.1192881,43.3972603 55,44.5012157 55,45.8630137 C55,47.2248117 56.1192881,48.3287671 57.5,48.3287671 C58.8807119,48.3287671 60,47.2248117 60,45.8630137 C60,44.5012157 58.8807119,43.3972603 57.5,43.3972603 Z M14.4318814,21.6986301 L50.5681186,21.6986301 C51.4352695,21.693564 52.2387016,22.1624059 52.6737292,22.9273982 C53.1087569,23.6923905 53.1087569,24.6363767 52.6737292,25.4013689 C52.2387016,26.1663612 51.4352695,26.6352031 50.5681186,26.630137 L14.4318814,26.630137 C13.5647305,26.6352031 12.7612984,26.1663612 12.3262708,25.4013689 C11.8912431,24.6363767 11.8912431,23.6923905 12.3262708,22.9273982 C12.7612984,22.1624059 13.5647305,21.693564 14.4318814,21.6986301 Z M14.3616865,45.369863 L28.6383135,45.369863 C29.9426062,45.369863 31,46.4737867 31,47.8355753 C31,48.4895447 30.7511802,49.1167292 30.308278,49.5791554 C29.8653759,50.0415815 29.2646717,50.3013699 28.6383135,50.3013699 L14.3616865,50.3013699 C13.0573631,50.3013699 12,49.197396 12,47.8355753 C12,46.4737867 13.0573938,45.369863 14.3616865,45.369863 L14.3616865,45.369863 Z M12,35.998274 C12,34.6374292 13.0627434,33.5342466 14.3737038,33.5342466 L36.6262962,33.5342466 C37.9372566,33.5342466 39,34.6374292 39,35.998274 L39,36.001726 C39,36.6552267 38.7499141,37.2819617 38.3047582,37.7440565 C37.8596024,38.2061513 37.2558416,38.4657534 36.6262962,38.4657534 L14.3737038,38.4657534 C13.7441584,38.4657534 13.1403976,38.2061513 12.6952418,37.7440565 C12.2500859,37.2819617 12,36.6552267 12,36.001726 L12,35.998274 Z M62.5925926,26.738255 C61.2630182,26.738255 60.1851852,25.6565269 60.1851852,24.3221477 L60.1851852,6.44295302 C60.1851852,5.55336685 59.4666298,4.83221477 58.5802469,4.83221477 L6.41975309,4.83221477 C5.53337015,4.83221477 4.81481481,5.55336685 4.81481481,6.44295302 L4.81481481,65.557047 C4.81481481,66.4466332 5.53337015,67.1677852 6.41975309,67.1677852 L38.2777778,67.1677852 C39.6073522,67.1677852 40.6851852,68.2495134 40.6851852,69.5838926 C40.6851852,70.9182719 39.6073522,72 38.2777778,72 L4.01234568,72 C1.79638835,72 7.10542736e-15,70.1971198 7.10542736e-15,67.9731544 L7.10542736e-15,4.02684564 C7.10542736e-15,1.8028802 1.79638835,0 4.01234568,0 L60.9876543,0 C63.2036117,0 65,1.8028802 65,4.02684564 L65,24.3221477 C65,25.6565269 63.922167,26.738255 62.5925926,26.738255 Z"></path>
            </g>
        </g>
    </g>
</svg>