<?xml version="1.0" encoding="UTF-8"?>
<svg width="76px" height="72px" viewBox="0 0 76 72" version="1.1" xmlns="http://www.w3.org/2000/svg" xmlns:xlink="http://www.w3.org/1999/xlink">
    <title>外包执行额</title>
    <g id="页面-1" stroke="none" stroke-width="1" fill="none" fill-rule="evenodd">
        <g id="服贸补贴申请首页" transform="translate(-557.000000, -505.000000)" fill="#FFFFFF" fill-rule="nonzero">
            <g id="形状" transform="translate(557.000000, 505.000000)">
                <path d="M45.2214182,69.6195724 C45.2214182,70.9367423 44.0578871,72 42.6164978,72 L9.69030391,72 C4.35890014,72 0,68.0326207 0,63.1448093 L0,12.4734406 C0,7.60149879 4.34153401,3.61824994 9.69030391,3.61824994 L13.7539797,3.61824994 C15.195369,3.61824994 16.3589001,4.6815076 16.3589001,5.99867754 C16.3589001,7.31584748 15.195369,8.37910514 13.7539797,8.37910514 L9.69030391,8.37910514 C7.22431259,8.37910514 5.20984081,10.2199691 5.20984081,12.4734406 L5.20984081,63.1448093 C5.20984081,65.3982808 7.22431259,67.2391448 9.69030391,67.2391448 L42.6164978,67.2391448 C44.0578871,67.2391448 45.2214182,68.3024025 45.2214182,69.6195724 L45.2214182,69.6195724 Z M50.3965268,8.37910514 L55.3632417,8.37910514 C57.829233,8.37910514 59.8437048,10.2199691 59.8437048,12.4734406 L59.8437048,34.5320696 C59.8437048,35.8492396 61.0072359,36.9124972 62.4486252,36.9124972 C63.8900145,36.9124972 65.0535456,35.8492396 65.0535456,34.5320696 L65.0535456,12.4734406 C65.0535456,7.60149879 60.7120116,3.61824994 55.3632417,3.61824994 L50.3965268,3.61824994 C48.9551375,3.61824994 47.7916064,4.6815076 47.7916064,5.99867754 C47.7916064,7.31584748 48.9725036,8.37910514 50.3965268,8.37910514 Z M21.6729378,12.2195283 C23.1143271,12.2195283 24.2778582,11.1562707 24.2778582,9.83910073 L24.2778582,8.49019176 L40.1678726,8.49019176 L40.1678726,9.83910073 C40.1678726,11.1562707 41.3314038,12.2195283 42.7727931,12.2195283 C44.2141823,12.2195283 45.3777135,11.1562707 45.3777135,9.83910073 L45.3777135,2.3804276 C45.3777135,1.06325766 44.2141823,0 42.7727931,0 C41.3314038,0 40.1678726,1.06325766 40.1678726,2.3804276 L40.1678726,3.72933657 L24.2778582,3.72933657 L24.2778582,2.3804276 C24.2778582,1.06325766 23.1143271,0 21.6729378,0 C20.2315485,0 19.0680174,1.06325766 19.0680174,2.3804276 L19.0680174,9.83910073 C19.0680174,11.1562707 20.2315485,12.2195283 21.6729378,12.2195283 Z M49.3892909,27.8510029 C48.3646889,26.9147013 46.7149059,26.9147013 45.70767,27.8510029 L30.4949349,41.7527 L23.6874096,35.5318492 C22.6628075,34.5955477 21.0130246,34.5955477 20.0057887,35.5318492 C18.9811867,36.4681508 18.9811867,37.9757549 20.0057887,38.8961869 L28.6714906,46.815076 C29.1751085,47.275292 29.8523878,47.5133348 30.512301,47.5133348 C31.1722142,47.5133348 31.8494935,47.275292 32.3531114,46.815076 L49.406657,31.2312101 C50.4138929,30.2949085 50.4138929,28.7873044 49.3892909,27.8510029 L49.3892909,27.8510029 Z M49.5803184,43.7046507 C49.5803184,45.0218206 50.7438495,46.0850782 52.1852388,46.0850782 L69.3950796,46.0850782 C70.8364689,46.0850782 72,45.0218206 72,43.7046507 C72,42.3874807 70.8364689,41.3242231 69.3950796,41.3242231 L52.1852388,41.3242231 C50.7438495,41.3242231 49.5803184,42.3874807 49.5803184,43.7046507 Z M69.3950796,50.0683271 L52.1852388,50.0683271 C50.7438495,50.0683271 49.5803184,51.1315847 49.5803184,52.4487547 C49.5803184,53.7659246 50.7438495,54.8291823 52.1852388,54.8291823 L69.3950796,54.8291823 C70.8364689,54.8291823 72,53.7659246 72,52.4487547 C72,51.1315847 70.8191027,50.0683271 69.3950796,50.0683271 Z M69.3950796,58.8283006 L52.1852388,58.8283006 C50.7438495,58.8283006 49.5803184,59.8915583 49.5803184,61.2087282 C49.5803184,62.5258982 50.7438495,63.5891558 52.1852388,63.5891558 L69.3950796,63.5891558 C70.8364689,63.5891558 72,62.5258982 72,61.2087282 C72,59.8915583 70.8191027,58.8283006 69.3950796,58.8283006 Z"></path>
            </g>
        </g>
    </g>
</svg>