<?xml version="1.0" encoding="UTF-8"?>
<svg width="66px" height="78px" viewBox="0 0 66 78" version="1.1" xmlns="http://www.w3.org/2000/svg" xmlns:xlink="http://www.w3.org/1999/xlink">
    <title>人才培训</title>
    <g id="页面-1" stroke="none" stroke-width="1" fill="none" fill-rule="evenodd">
        <g id="服贸补贴申请首页" transform="translate(-1069.000000, -271.000000)" fill="#FFFFFF" fill-rule="nonzero">
            <g id="ic-人才培训" transform="translate(1069.000000, 271.000000)">
                <path d="M66,56.6418578 L66,12.070293 C66,8.48659688 63.5900382,5.57061097 60.628237,5.57061097 L35.3019589,5.57061097 L35.3019589,2.78530548 C35.3019589,1.24766424 34.2708075,0 33,0 C31.7291925,0 30.6980411,1.24766424 30.6980411,2.78530548 L30.6980411,5.57061097 L5.37176302,5.57061097 C2.40996178,5.57061097 0,8.48659688 0,12.070293 L0,56.6428117 C0,60.2265079 2.40996178,63.1424938 5.37176302,63.1424938 L12.0931677,63.1424938 L3.7438366,73.2439955 C2.84433827,74.3323632 2.84433827,76.0951181 3.7438366,77.1834858 C4.19319159,77.7271927 4.78287148,78 5.37176302,78 C5.96065456,78 6.54954611,77.7281466 6.99968944,77.1834858 L18.604085,63.1424938 L50.4649307,63.1424938 L62.0693263,77.1834858 C62.5186813,77.7271927 63.1083612,78 63.6972527,78 C64.2861443,78 64.8750358,77.7281466 65.3251792,77.1834858 C66.2246775,76.0951181 66.2246775,74.3323632 65.3251792,73.2439955 L56.9758481,63.1424938 L60.6274486,63.1424938 C63.5892499,63.1424938 66,60.225554 66,56.6418578 Z M4.60391782,56.6418578 L4.60391782,12.070293 C4.60391782,11.5656949 4.95473005,11.1421758 5.37097468,11.1421758 L60.6266603,11.1421758 C61.0436933,11.1421758 61.3937172,11.5666487 61.3937172,12.070293 L61.3937172,56.6428117 C61.3937172,57.1474099 61.0429049,57.5709289 60.6266603,57.5709289 L5.37176302,57.5709289 C4.95473005,57.5709289 4.60391782,57.146456 4.60391782,56.6418578 Z" id="形状"></path>
                <path d="M14.2822695,28.7268267 L32.5435445,28.7268267 C33.8034818,28.7268267 34.8258131,27.4441744 34.8258131,25.8634133 C34.8258131,24.2826523 33.8034818,23 32.5435445,23 L14.2822695,23 C13.0223322,23 12.0000004,24.2826523 12.0000004,25.8634133 C11.9992193,27.4441744 13.0215506,28.7268267 14.2822695,28.7268267 Z M47.0000009,41.1365855 C47.0000009,39.5558245 45.9776652,38.2731722 44.7177278,38.2731722 L14.2822695,38.2731722 C13.0223322,38.2731722 12.0000009,39.5558245 12.0000009,41.1365855 C12.0000009,42.7173466 13.0223322,43.9999994 14.2822695,43.9999994 L44.7177278,43.9999994 C45.9776652,44.0009795 47.0000009,42.7183272 47.0000009,41.1365855 Z" id="形状"></path>
            </g>
        </g>
    </g>
</svg>