<?xml version="1.0" encoding="UTF-8"?>
<svg width="66px" height="72px" viewBox="0 0 66 72" version="1.1" xmlns="http://www.w3.org/2000/svg" xmlns:xlink="http://www.w3.org/1999/xlink">
    <title> 技术出口</title>
    <g id="页面-1" stroke="none" stroke-width="1" fill="none" fill-rule="evenodd">
        <g id="服贸补贴申请首页" transform="translate(-814.000000, -502.000000)" fill="#FFFFFF" fill-rule="nonzero">
            <g id="形状" transform="translate(814.000000, 502.000000)">
                <path d="M26.4675871,22.5560326 C25.8851168,22.1862624 25.1529639,22.0274912 24.4321936,22.1146469 C23.7114234,22.2018026 23.0610776,22.5277458 22.6242249,23.0207728 L14.3884487,32.3155751 C13.6554633,33.1415211 13.6554633,34.2780699 14.3884487,35.1040159 L22.6242249,44.3988182 C23.5339236,45.4254937 25.2546554,45.6335649 26.467587,44.8635583 C27.6805186,44.0935517 27.9263375,42.637053 27.0166388,41.6103775 L20.0162291,33.7097955 L27.0166388,25.8092135 C27.4534916,25.3161865 27.6410665,24.696462 27.5380993,24.0863722 C27.4351322,23.4762825 27.0500574,22.9258029 26.4675871,22.5560326 L26.4675871,22.5560326 Z M53.3711226,44.8635584 C54.5840542,45.633565 56.3047861,45.4254938 57.2144848,44.3988182 L65.450261,35.1040159 C66.1832463,34.2780699 66.1832463,33.1415211 65.450261,32.3155751 L57.2144848,23.0207728 C56.3047861,21.9940973 54.5840542,21.7860261 53.3711227,22.5560327 C52.1581911,23.3260393 51.9123722,24.782538 52.8220708,25.8092135 L59.8224806,33.7097955 L52.8220708,41.6103775 C52.3852181,42.1034045 52.1976432,42.723129 52.3006103,43.3332188 C52.4035775,43.9433085 52.7886523,44.4937881 53.3711226,44.8635584 Z M39.985241,21.5870495 L34.4947236,42.5003549 C34.2615562,43.3171661 34.5675522,44.1768943 35.2949763,44.7487501 C36.0224005,45.320606 37.0579045,45.5154821 38.0030676,45.2583979 C38.9482308,45.0013136 39.6557762,44.3323284 39.8534686,43.5088409 L45.3439861,22.5955356 C45.5771534,21.7787243 45.2711575,20.9189962 44.5437333,20.3471403 C43.8163092,19.7752844 42.7808052,19.5804083 41.8356421,19.8374925 C40.8904789,20.0945768 40.1829335,20.763562 39.985241,21.5870495 L39.985241,21.5870495 Z"></path>
                <path d="M63.25,45.3288 C61.7312169,45.3288 60.5,46.4033166 60.5,47.7288 L60.5,52.8 L52.25,52.8 C47.6936508,52.8 44,56.0235498 44,60 L44,67.2 L8.51125,67.2 C6.85025,67.2 5.5,65.9568 5.5,64.4304 L5.5,7.5696 C5.5,6.0432 6.85025,4.8 8.51125,4.8 L57.486,4.8 C59.14975,4.8 60.5,6.0432 60.5,7.5696 L60.5,16.9032 C60.5,18.2286834 61.7312169,19.3032 63.25,19.3032 C64.7687831,19.3032 66,18.2286834 66,16.9032 L66,7.5696 C66,3.396 62.18025,0 57.486,0 L8.51125,0 C3.81975,0 0,3.396 0,7.5696 L0,64.4304 C0,68.604 3.81975,72 8.51125,72 L45.89475,72 C46.0295,72 46.145,71.9496 46.27425,71.9328 C47.04425,72.0528 47.861,71.9136 48.50725,71.4432 L65.00725,59.4432 C65.856735,58.8259067 66.2001386,57.8247085 65.879,56.9016 C65.92575,56.7312 66,56.5704 66,56.388 L66,47.7288 C66,46.4033166 64.7687831,45.3288 63.25,45.3288 L63.25,45.3288 Z M52.25,57.6 L58.9545,57.6 L49.5,64.476 L49.5,60 C49.5,58.6745166 50.7312169,57.6 52.25,57.6 Z"></path>
            </g>
        </g>
    </g>
</svg>