<?xml version="1.0" encoding="UTF-8"?>
<svg width="80px" height="72px" viewBox="0 0 80 72" version="1.1" xmlns="http://www.w3.org/2000/svg" xmlns:xlink="http://www.w3.org/1999/xlink">
    <title>我的申报</title>
    <g id="页面-1" stroke="none" stroke-width="1" fill="none" fill-rule="evenodd">
        <g id="服贸补贴申请首页" transform="translate(-298.000000, -804.000000)" fill="#FFFFFF" fill-rule="nonzero">
            <g id="ic-我的申报" transform="translate(298.000000, 804.000000)">
                <path d="M39.8646958,65.4107143 L33.7228539,62.3491071 L31.0264355,61.0071429 L28.3212052,62.3410714 L20.6637294,66.1419643 L13.0238772,62.3410714 L10.3274588,60.9991071 L7.63104036,62.3410714 L5.63956794,63.3294643 L5.63956794,7.71428571 C5.63956794,6.29196429 6.8996589,5.14285714 8.4593519,5.14285714 L53.5406481,5.14285714 C55.1003411,5.14285714 56.3604321,6.29196429 56.3604321,7.71428571 L56.3604321,38.3303571 C56.3604321,39.7526786 57.620523,40.9017857 59.180216,40.9017857 C60.739909,40.9017857 62,39.7526786 62,38.3303571 L62,5.14285714 C62,2.30625 59.6913019,0 56.8362706,0 L5.16372939,0 C2.30869812,0 0,2.30625 0,5.14285714 L0,72 L10.3274588,66.8571429 L20.6637294,72 L31.0176236,66.8571429 L37.1594656,69.91875 C39.0363843,70.8589286 41.3274588,69.6133929 41.3274588,67.6607143 C41.3274588,66.7205357 40.7723138,65.8607143 39.8646958,65.4107143 Z" id="路径"></path>
                <path d="M46.1651902,16 L17.8348098,16 C16.2668056,16 15,17.1544271 15,18.5833333 C15,20.0122396 16.2668056,21.1666667 17.8348098,21.1666667 L46.1651902,21.1666667 C47.7331944,21.1666667 49,20.0122396 49,18.5833333 C49,17.1544271 47.7331944,16 46.1651902,16 Z M46.1651902,28.9166667 L17.8348098,28.9166667 C16.2668056,28.9166667 15,30.0710938 15,31.5 C15,32.9289063 16.2668056,34.0833333 17.8348098,34.0833333 L46.1651902,34.0833333 C47.7331944,34.0833333 49,32.9289063 49,31.5 C49,30.0710938 47.7331944,28.9166667 46.1651902,28.9166667 Z M40.5044294,41.8333333 L17.8348098,41.8333333 C16.2668056,41.8333333 15,42.9877604 15,44.4166667 C15,45.8455729 16.2668056,47 17.8348098,47 L40.4955706,47 C42.0635748,47 43.3303804,45.8455729 43.3303804,44.4166667 C43.3303804,42.9877604 42.0635748,41.8333333 40.5044294,41.8333333 L40.5044294,41.8333333 Z" id="形状"></path>
                <path d="M64.4414032,67.5916781 L54.7259238,58.5291196 C53.6454657,57.5212728 51.8908017,57.5212728 50.8103436,58.5291196 C49.7298855,59.5369664 49.7298855,61.1737096 50.8103436,62.1815564 L60.5258229,71.2441149 C61.6062811,72.2519617 63.360945,72.2519617 64.4414032,71.2441149 C65.5218613,70.2362681 65.5218613,68.5995249 64.4414032,67.5916781 Z M63.6029677,61.8993593 C64.3117482,61.8993593 65.0205287,61.6494133 65.5564359,61.1414585 L74.4680545,52.828738 L74.4680545,57.1584479 C74.4680545,58.585559 75.7040985,59.7385357 77.2340272,59.7385357 C78.7639559,59.7385357 80,58.585559 80,57.1584479 L80,46.5962134 L80,46.5800878 L80,46.467209 C80,46.4430207 80,46.4268951 79.9913563,46.4027068 C79.9913563,46.3785185 79.9913563,46.3623929 79.9827127,46.3382046 C79.9827127,46.3140163 79.974069,46.2898279 79.974069,46.2656396 C79.974069,46.2495141 79.974069,46.2333885 79.9654253,46.217263 C79.9654253,46.1930747 79.9567817,46.1608236 79.948138,46.1366352 C79.948138,46.1205097 79.9394943,46.1124469 79.9394943,46.0963214 C79.9308507,46.072133 79.9308507,46.0398819 79.922207,46.0156936 C79.922207,45.9995681 79.9135634,45.9915053 79.9135634,45.9753797 C79.9049197,45.9511914 79.896276,45.9270031 79.8876324,45.894752 C79.8789887,45.8786264 79.8789887,45.8625009 79.870345,45.8544381 L79.844414,45.7818732 C79.8357704,45.7657476 79.8357704,45.7496221 79.8271267,45.7334965 C79.818483,45.7093082 79.8098394,45.6931826 79.8011957,45.6689943 C79.792552,45.6528688 79.7839084,45.6286804 79.7752647,45.6125549 C79.766621,45.5964293 79.7579774,45.572241 79.7493337,45.5561155 C79.7406901,45.5319271 79.7320464,45.5158016 79.7147591,45.4916133 L79.6888281,45.4432366 C79.6801844,45.4190483 79.6628971,45.39486 79.6542534,45.3787344 C79.6456097,45.3626089 79.6369661,45.3545461 79.6283224,45.3384206 C79.6110351,45.3142322 79.6023914,45.2900439 79.5851041,45.2658556 C79.5764604,45.2577928 79.5678168,45.2416673 79.5591731,45.2336045 L79.5073111,45.1610395 C79.4986674,45.1529767 79.4900238,45.1368512 79.4813801,45.1287884 C79.4640928,45.1046001 79.4468054,45.0804118 79.4295181,45.0642862 C79.4208745,45.0481607 79.4122308,45.0400979 79.3949435,45.0239724 C79.3776561,45.0078468 79.3603688,44.9836585 79.3430815,44.9675329 C79.3257941,44.9514074 79.3085068,44.9352818 79.2998631,44.9191563 C79.2825758,44.9030307 79.2739321,44.8869052 79.2566448,44.8707796 C79.1961392,44.8062774 79.1269898,44.749838 79.0664842,44.6933986 C79.0491969,44.6772731 79.0319095,44.6692103 79.0146222,44.6530847 C78.9973349,44.6369592 78.9800475,44.6208336 78.9627602,44.6127709 C78.9454729,44.5966453 78.9195419,44.5805198 78.8936109,44.5643942 C78.8763236,44.5563314 78.8676799,44.5482687 78.8503926,44.5321431 C78.8244616,44.5160176 78.7985306,44.499892 78.7812432,44.4837665 C78.7725996,44.4757037 78.7553123,44.4676409 78.7466686,44.4595781 L78.6688756,44.4112015 C78.6602319,44.4031387 78.6429446,44.3950759 78.6343009,44.3870132 C78.6083699,44.3708876 78.582439,44.3628249 78.556508,44.3466993 C78.5392206,44.3386365 78.530577,44.3305738 78.5132896,44.322511 C78.4873586,44.3063854 78.4614276,44.2983227 78.4441403,44.2902599 L78.3922783,44.2660716 C78.3663473,44.2580088 78.34906,44.249946 78.323129,44.2338205 C78.3058417,44.2257577 78.2799107,44.2176949 78.2626234,44.2096321 C78.245336,44.2015694 78.219405,44.1935066 78.2021177,44.1854438 C78.1761867,44.177381 78.1588994,44.1693183 78.1329684,44.1612555 C78.115681,44.1531927 78.0983937,44.1531927 78.0811064,44.1451299 L78.0033134,44.1209416 C77.9860261,44.1128788 77.9687387,44.1128788 77.9600951,44.1048161 C77.9341641,44.0967533 77.9082331,44.0886905 77.8736584,44.0806277 C77.8563711,44.0806277 77.8477274,44.072565 77.8304401,44.072565 C77.8045091,44.0645022 77.7699345,44.0564394 77.7440035,44.0564394 C77.7267161,44.0564394 77.7180725,44.0483766 77.7007851,44.0483766 C77.6748541,44.0403139 77.6402795,44.0403139 77.6143485,44.0322511 C77.5970612,44.0322511 77.5797738,44.0322511 77.5624865,44.0241883 C77.5365555,44.0241883 77.5106245,44.0161255 77.4760498,44.0161255 C77.4501189,44.0161255 77.4328315,44.0161255 77.4069005,44.0080628 C77.3809695,44.0080628 77.3636822,44.0080628 77.3377512,44 L77.2080962,44 L65.8762515,44 C64.3463228,44 63.1102788,45.1529767 63.1102788,46.5800878 C63.1102788,48.0071989 64.3463228,49.1601757 65.8762515,49.1601757 L70.5178996,49.1601757 L61.6408557,57.4970844 C60.5603976,58.5049313 60.5603976,60.1416745 61.6408557,61.1495213 C62.1854066,61.6494133 62.8941871,61.8993593 63.6029677,61.8993593 L63.6029677,61.8993593 Z" id="形状"></path>
            </g>
        </g>
    </g>
</svg>