<?xml version="1.0" encoding="UTF-8"?>
<svg width="66px" height="74px" viewBox="0 0 66 74" version="1.1" xmlns="http://www.w3.org/2000/svg" xmlns:xlink="http://www.w3.org/1999/xlink">
    <title>资质认证</title>
    <g id="页面-1" stroke="none" stroke-width="1" fill="none" fill-rule="evenodd">
        <g id="服贸补贴申请首页" transform="translate(-300.000000, -501.000000)" fill="#FFFFFF" fill-rule="nonzero">
            <g id="ic-国际通行资质认证" transform="translate(300.000000, 501.000000)">
                <path d="M28.6043512,50 C27.9489796,50 27.293608,49.7615286 26.7902066,49.275414 L17.7479784,40.5436943 C16.7506739,39.5806369 16.7506739,38.0122293 17.7479784,37.04 C18.745283,36.0769427 20.3694648,36.0769427 21.3762675,37.04 L28.6043512,44.0198727 L49.6237325,23.722293 C50.6210371,22.7592357 52.2452189,22.7592357 53.2520216,23.722293 C54.2493261,24.6853503 54.2493261,26.253758 53.2520216,27.2259873 L30.4184957,49.2754139 C29.9150943,49.7615286 29.2597228,50 28.6043512,50 Z" id="路径"></path>
                <path d="M32.7939597,74 L32.7268767,74 C32.4297953,74 32.1327138,73.9541022 31.8547989,73.8531271 C31.5385509,73.7429725 23.9581821,71.0992604 16.2723972,66.4176869 C11.6724262,63.6179223 7.99244948,60.6621054 5.31871638,57.6236723 C1.792072,53.6122064 0,49.4355085 0,45.2129129 L0,13.7729341 C0,12.7448239 0.661245869,11.8176887 1.66748944,11.4505065 L32.8322927,0.159652833 C33.4360389,-0.0606565172 34.0972848,-0.0514769945 34.6914477,0.178011968 L64.3708436,11.4780452 C65.3579207,11.854407 66,12.7631831 66,13.7821138 L66,45.2220925 C66,49.4538678 64.1791782,53.6305656 60.5950341,57.6512111 C57.8829679,60.6804645 54.1454915,63.6362815 49.4784376,66.436046 C41.6776536,71.1176195 33.9822854,73.7613315 33.6660374,73.8714862 C33.3785393,73.9541022 33.0910411,74 32.7939597,74 Z M5.25163353,15.4895112 L5.25163353,45.212913 C5.25163353,52.2903505 12.6978366,58.3763961 19.0323798,62.2318095 C24.8206767,65.7567589 30.6473066,68.0883661 32.7652098,68.8869874 C34.9214461,68.0883661 40.9109917,65.7292202 46.8047045,62.1767321 C53.2063307,58.3304982 60.834616,52.2628117 60.834616,45.2129129 L60.834616,15.4619725 L33.7139539,5.13497222 L5.25163353,15.4895112 Z" id="形状"></path>
            </g>
        </g>
    </g>
</svg>