<?xml version="1.0" encoding="UTF-8"?>
<svg width="72px" height="72px" viewBox="0 0 72 72" version="1.1" xmlns="http://www.w3.org/2000/svg" xmlns:xlink="http://www.w3.org/1999/xlink">
    <title>新录用员工培训</title>
    <g id="页面-1" stroke="none" stroke-width="1" fill="none" fill-rule="evenodd">
        <g id="服贸补贴申请首页" transform="translate(-811.000000, -277.000000)" fill="#FFFFFF" fill-rule="nonzero">
            <g id="ic--新录用员工培训" transform="translate(811.000000, 277.000000)">
                <path d="M63.4139983,54.9548492 C68.7074554,57.8327344 72.0020656,63.3759636 71.999999,69.4009177 C71.999999,70.8343554 70.8379084,71.9963863 69.4043982,71.9963863 C67.9708879,71.9963863 66.8087983,70.8343554 66.8087983,69.4009177 C66.8087983,63.1880288 61.7720018,58.1514873 55.5587985,58.1514873 C49.3455952,58.1514873 44.3087988,63.1880288 44.3087988,69.4009177 C44.3087988,70.8353495 43.1459032,71.9981862 41.7113988,71.9981862 C40.2768945,71.9981862 39.1139989,70.8353495 39.1139989,69.4009177 C39.1139989,63.1660334 42.5879989,57.7375083 47.6999987,54.9548492 C44.4254423,51.7596417 43.4122225,46.8996739 45.1372039,42.6622542 C46.8621852,38.4248345 50.9817276,35.6541153 55.5569985,35.6541153 C60.1322694,35.6541153 64.2518118,38.4248345 65.9767931,42.6622542 C67.7017744,46.8996739 66.6885547,51.7596417 63.4139983,54.9548492 L63.4139983,54.9548492 Z M55.5587985,52.9605502 C58.9049813,52.9605502 61.6175984,50.2480704 61.6175984,46.902057 C61.6175984,43.5560436 58.9049813,40.8435637 55.5587985,40.8435637 C52.2126158,40.8435637 49.4999987,43.5560436 49.4999987,46.902057 C49.4999987,50.2480704 52.2126158,52.9605502 55.5587985,52.9605502 L55.5587985,52.9605502 Z M47.5019987,29.6301315 L13.3019996,29.6301315 C11.7539997,29.6301315 10.7999997,28.6041834 10.7999997,26.9302682 C10.7999997,25.2563529 11.7539997,24.2304049 13.3055997,24.2304049 L47.5019987,24.2304049 C49.0499987,24.2304049 50.0039987,25.2563529 50.0039987,26.9302682 C50.0039987,28.6041834 49.0499988,29.6301315 47.5019987,29.6301315 Z M32.8463991,41.7543176 L13.3055997,41.7543176 C11.7575997,41.7543176 10.7999997,40.7283695 10.7999997,39.0544543 C10.7999997,37.3805391 11.7539997,36.354591 13.3055997,36.354591 L32.8463991,36.354591 C34.394399,36.354591 35.3483991,37.3805391 35.3483991,39.0544543 C35.3483991,40.7283695 34.3943991,41.7543176 32.8463991,41.7543176 Z M32.3999992,66.4598667 C33.4227392,66.4076943 34.3909289,66.9236145 34.9179574,67.8016135 C35.444986,68.6796126 35.444986,69.7766404 34.9179574,70.6546394 C34.3909289,71.5326385 33.4227392,72.0485586 32.3999992,71.9963863 L10.1843997,71.9963863 C4.56906526,72.0043455 0.00993303306,67.4599474 0,61.8449003 L0,10.1515178 C0.00993303306,4.53647067 4.56906526,-0.00792743468 10.1843997,1.58729912e-05 L54.6119985,1.58729912e-05 C57.3092514,-0.00474603875 59.8979296,1.06209927 61.8085511,2.9658731 C63.7191726,4.86964693 64.7952286,7.45440139 64.7999983,10.1515178 L64.7999983,28.6149829 C64.7999983,30.1488209 63.556514,31.3922423 62.0225984,31.3922423 C60.4886827,31.3922423 59.2451984,30.1488209 59.2451984,28.6149829 L59.2451984,10.1515178 C59.2451984,7.5992471 57.1751984,5.53295166 54.6155986,5.53295166 L10.1879997,5.53295166 C7.63199973,5.53295166 5.55839979,7.599247 5.55839979,10.1515178 L5.55839979,61.8377007 C5.55839979,64.3899714 7.62839977,66.4562669 10.1879997,66.4562668 L32.3999992,66.4562668 L32.3999992,66.4598667 Z" id="形状"></path>
            </g>
        </g>
    </g>
</svg>